/vscmnt/brussel_pixiu_data/_data_brussel/112/vsc11236/PredSimResults/SUBJ07mtu3D/worker8.mot
version=1
nRows=6
nColumns=50
inDegrees=yes
endheader
                time	         pelvis_tilt	         pelvis_list	     pelvis_rotation	           pelvis_tx	           pelvis_ty	           pelvis_tz	       hip_flexion_r	     hip_adduction_r	      hip_rotation_r	        knee_angle_r	       ankle_angle_r	         mtp_angle_r	       hip_flexion_l	     hip_adduction_l	      hip_rotation_l	        knee_angle_l	       ankle_angle_l	         mtp_angle_l	    lumbar_extension	      lumbar_bending	     lumbar_rotation	 ercspn_r/activation	 intobl_r/activation	 extobl_r/activation	    abd_r/activation	    add_r/activation	hamstrings_r/activation	bifemsh_r/activation	glut_max_r/activation	iliopsoas_r/activation	rect_fem_r/activation	  vasti_r/activation	gastroc_r/activation	 soleus_r/activation	tib_ant_r/activation	 ercspn_l/activation	 intobl_l/activation	 extobl_l/activation	    abd_l/activation	    add_l/activation	hamstrings_l/activation	bifemsh_l/activation	glut_max_l/activation	iliopsoas_l/activation	rect_fem_l/activation	  vasti_l/activation	gastroc_l/activation	 soleus_l/activation	tib_ant_l/activation	
          1.65414177	         -3.71968015	         -0.02904842	         -8.45116997	          2.01805296	          0.85019487	          0.01325956	        -14.77719519	          0.45622977	          4.19670576	         -9.12036009	          8.16840955	         27.66710702	         30.07582001	         -2.26520759	         -4.05533542	         -7.89757219	          3.81971546	          0.26611078	        -10.59666330	          1.66592930	          1.53256923	          0.13642302	          0.00999999	          0.00999999	          0.03725749	          0.01106262	          0.01425531	          0.13410585	          0.01658930	          0.20446925	          0.01183793	          0.01069630	          0.12490168	          0.28409539	          0.01963828	          0.12378579	          0.14248303	          0.00999999	          0.02184415	          0.12838705	          0.05850997	          0.09472148	          0.08135377	          0.02414962	          0.01183793	          0.00999999	          0.00999999	          0.00999999	          0.38212839	
          1.66516938	         -3.72404905	         -0.08480921	         -8.43883088	          2.03380613	          0.84871500	          0.01309691	        -15.23125042	          0.41843543	          3.83667373	        -10.19017277	          7.21087558	         29.24621803	         29.76478867	         -2.04969412	         -3.63791158	         -9.19300521	          3.49996625	          0.24871728	        -10.47701245	          1.26744757	          1.74165377	          0.15193928	          0.00999999	          0.00999999	          0.03147296	          0.02399311	          0.01204207	          0.11328483	          0.01401368	          0.17272375	          0.01000000	          0.00999999	          0.10550968	          0.26537971	          0.01658928	          0.10456704	          0.13035845	          0.00999999	          0.01845267	          0.10845392	          0.05653448	          0.09442614	          0.12974746	          0.02040020	          0.00999999	          0.00999999	          0.01658926	          0.01183792	          0.40992468	
          1.67619699	         -3.72113446	         -0.13813633	         -8.37455175	          2.04971299	          0.84744423	          0.01284801	        -15.54287793	          0.39261302	          3.43472918	        -11.53424332	          6.14185356	         30.76421273	         29.38264775	         -1.88194713	         -3.24196266	        -10.42451304	          3.11551355	          0.24580271	        -10.35028528	          0.86533661	          1.94173366	          0.16514291	          0.00999999	          0.00999999	          0.02658653	          0.02026798	          0.01017246	          0.09569645	          0.01183794	          0.14590699	          0.01000002	          0.00999999	          0.08912845	          0.24312082	          0.01401366	          0.14006456	          0.11011925	          0.00999999	          0.10278167	          0.12416914	          0.05225971	          0.08730478	          0.13055382	          0.01723290	          0.00999999	          0.00999999	          0.01401365	          0.00999999	          0.47018741	
          1.68722460	         -3.71252296	         -0.20730535	         -8.26156974	          2.06558350	          0.84654434	          0.01250091	        -15.63422681	          0.39842348	          3.00155616	        -13.25905405	          4.93638404	         32.16127849	         29.01919957	         -1.73273692	         -2.92162740	        -11.66900162	          2.66638346	          0.22747795	        -10.23751950	          0.48023751	          2.13086506	          0.19970389	          0.00999999	          0.00999999	          0.02245875	          0.02077466	          0.01000015	          0.08083880	          0.01000001	          0.12325375	          0.01000000	          0.00999999	          0.07529054	          0.21038995	          0.01183792	          0.14656449	          0.09302234	          0.00999999	          0.14765562	          0.14750661	          0.04465049	          0.07375001	          0.15055533	          0.01455736	          0.00999999	          0.00999999	          0.01183791	          0.00999999	          0.49231039	
          1.69825221	         -3.69837034	         -0.28391986	         -8.10674942	          2.08128637	          0.84613873	          0.01206092	        -15.43626863	          0.42579727	          2.54352823	        -15.46326785	          3.61650921	         33.28779847	         28.73397216	         -1.58860600	         -2.65470352	        -13.07474606	          2.42561162	          0.20959672	        -10.14630955	          0.10501482	          2.30849333	          0.23196546	          0.00999999	          0.00999999	          0.01897185	          0.04471767	          0.01000011	          0.06828792	          0.00999999	          0.10411761	          0.00999999	          0.00999999	          0.06360107	          0.17772521	          0.00999999	          0.15445908	          0.07857987	          0.00999999	          0.18192040	          0.16850968	          0.04314261	          0.06229972	          0.16717525	          0.01229721	          0.00999999	          0.03489088	          0.00999999	          0.00999999	          0.49901633	
          1.70927983	         -3.68034977	         -0.36753800	         -7.91137899	          2.09673762	          0.84634805	          0.01154389	        -14.88387391	          0.47438694	          2.04984943	        -18.23798611	          2.19843743	         33.93143996	         28.48373020	         -1.44962475	         -2.43864030	        -14.54819304	          2.41070282	          0.19069413	        -10.07802493	         -0.25846629	          2.47169714	          0.25311622	          0.00999999	          0.00999999	          0.01602632	          0.07148184	          0.01000006	          0.05768567	          0.00999999	          0.08795251	          0.00999999	          0.00999999	          0.05372649	          0.15013193	          0.00999999	          0.15772266	          0.06637971	          0.00999999	          0.20088076	          0.18630756	          0.04305937	          0.05262719	          0.17349287	          0.01038797	          0.00999999	          0.06256047	          0.00999999	          0.00999999	          0.48079433	
